<?xml version="1.0" encoding="UTF-8"?>
<svg version="1.1" xmlns="http://www.w3.org/2000/svg" width="600" height="600">
<path d="M0 0 C50.11637367 -0.11446722 100.23273411 -0.20256 150.34921281 -0.25532665 C156.2671512 -0.26158011 162.18508934 -0.26805173 168.10302734 -0.2746582 C169.28117245 -0.27596976 170.45931756 -0.27728131 171.67316404 -0.2786326 C190.74458362 -0.3003837 209.81592776 -0.33980364 228.88730261 -0.38576398 C248.45917062 -0.43253677 268.03099916 -0.46029715 287.60292077 -0.47044247 C299.67794064 -0.4772999 311.7527473 -0.49895136 323.82770154 -0.53958233 C332.110175 -0.56603079 340.39253839 -0.5739962 348.675051 -0.56750689 C353.45226243 -0.56430731 358.2291015 -0.56918031 363.00624657 -0.59602737 C367.38517231 -0.62045612 371.76347722 -0.62152558 376.14243224 -0.60449447 C377.72138271 -0.60239127 379.30037279 -0.60865235 380.87924597 -0.62441591 C393.22345002 -0.74043314 402.88595255 1.94480831 413.25 8.6875 C414.61898437 9.55955078 414.61898437 9.55955078 416.015625 10.44921875 C416.67046875 10.96097656 417.3253125 11.47273438 418 12 C418 12.66 418 13.32 418 14 C418.61875 14.2475 419.2375 14.495 419.875 14.75 C422.35068687 16.20628639 422.95125002 17.37812506 424 20 C424.66 20 425.32 20 426 20 C426.598125 21.093125 427.19625 22.18625 427.8125 23.3125 C428.98072325 25.37237068 429.94489561 26.94489561 431.625 28.625 C433.53780437 30.53780437 434.18828779 32.43998456 435 35 C435 36.32 435 37.64 435 39 C435.66 39 436.32 39 437 39 C439.22606421 42.57824685 439.24872854 45.51144373 439.24609566 49.67667007 C439.24840335 50.34988143 439.25071103 51.02309279 439.25308865 51.71670449 C439.25840159 53.98280482 439.24939396 56.24862354 439.24050903 58.51470947 C439.24138084 60.15158332 439.24313135 61.78845689 439.24568737 63.42532897 C439.25016986 67.93135036 439.24214483 72.43727709 439.23213124 76.94328642 C439.22351203 81.79943055 439.22641582 86.65556913 439.22793579 91.51171875 C439.22898561 99.92799397 439.22269887 108.34423824 439.21146011 116.76050568 C439.19522122 128.92908305 439.18999876 141.09764542 439.18748413 153.26623246 C439.1831045 173.00790044 439.16978811 192.74955192 439.15087891 212.49121094 C439.13252705 231.6708976 439.11836715 250.85057977 439.10986328 270.03027344 C439.10933783 271.21207279 439.10881239 272.39387215 439.10827102 273.6114836 C439.10566098 279.54009325 439.10313356 285.46870294 439.10064721 291.39731264 C439.07990635 340.59821984 439.04467352 389.79910911 439 439 C438.34 439.33 437.68 439.66 437 440 C437 440.66 437 441.32 437 442 C436.34 442 435.68 442 435 442 C434.87625 442.886875 434.7525 443.77375 434.625 444.6875 C434.0512414 447.7284206 433.34864818 450.22337139 432 453 C431.34 453.33 430.68 453.66 430 454 C429.525625 455.155 429.05125 456.31 428.5625 457.5 C425.71148571 463.49471826 420.41339444 467.3618805 415 471 C414.2471875 471.18691406 413.494375 471.37382813 412.71875 471.56640625 C412.1515625 471.70949219 411.584375 471.85257813 411 472 C410.67 472.99 410.34 473.98 410 475 C406.5065403 476.74672985 403.93154432 478 400 478 C400 478.66 400 479.32 400 480 C398.35 480 396.7 480 395 480 C395 480.66 395 481.32 395 482 C264.65 482 134.3 482 0 482 C0 481.34 0 480.68 0 480 C-1.65 480 -3.3 480 -5 480 C-5 479.34 -5 478.68 -5 478 C-5.721875 477.87625 -6.44375 477.7525 -7.1875 477.625 C-12.45672264 476.45406164 -15.25819189 474.85873962 -19 471 C-20.36125 470.195625 -20.36125 470.195625 -21.75 469.375 C-22.86375 468.694375 -22.86375 468.694375 -24 468 C-24 467.34 -24 466.68 -24 466 C-24.61875 465.7525 -25.2375 465.505 -25.875 465.25 C-28.35068687 463.79371361 -28.95125002 462.62187494 -30 460 C-30.66 460 -31.32 460 -32 460 C-32.433125 459.071875 -32.86625 458.14375 -33.3125 457.1875 C-34.72802237 454.10988255 -34.72802237 454.10988255 -36.5 452.5625 C-39.91873035 449.00132255 -41 444.80215873 -41 440 C-41.66 440 -42.32 440 -43 440 C-43 308.33 -43 176.66 -43 41 C-42.34 41 -41.68 41 -41 41 C-40.896875 40.154375 -40.79375 39.30875 -40.6875 38.4375 C-39.9171146 34.58557299 -38.63725486 31.55924969 -37 28 C-36.34 28 -35.68 28 -35 28 C-34.79375 27.319375 -34.5875 26.63875 -34.375 25.9375 C-32.5339753 22.00440178 -29.92946991 19.16994878 -27 16 C-26.195625 15.113125 -25.39125 14.22625 -24.5625 13.3125 C-21.60790539 10.64615852 -18.50861352 8.8117696 -15 7 C-13.76443359 6.32710938 -13.76443359 6.32710938 -12.50390625 5.640625 C-11.63636719 5.18171875 -10.76882812 4.7228125 -9.875 4.25 C-8.66457031 3.60804687 -8.66457031 3.60804687 -7.4296875 2.953125 C-4.77668771 1.91239839 -2.82382193 1.81911461 0 2 C0 1.34 0 0.68 0 0 Z M52 88 C52 88.66 52 89.32 52 90 C51.236875 90.226875 50.47375 90.45375 49.6875 90.6875 C46.40469527 92.29073022 45.64082649 93.79648162 44 97 C43.34 97.99 42.68 98.98 42 100 C42 100.99 42 101.98 42 103 C41.34 103.33 40.68 103.66 40 104 C35.40459454 113.4611289 36.44058943 124.11731248 39 134 C39.33 134.66 39.66 135.32 40 136 C40.66 136 41.32 136 42 136 C42.268125 136.969375 42.53625 137.93875 42.8125 138.9375 C43.204375 139.948125 43.59625 140.95875 44 142 C44.99 142.33 45.98 142.66 47 143 C46.67 143.99 46.34 144.98 46 146 C46.804375 146.61875 47.60875 147.2375 48.4375 147.875 C51 150 51 150 52 152 C54.00513856 153.13160234 54.00513856 153.13160234 56.375 154.125 C57.16648437 154.47820312 57.95796875 154.83140625 58.7734375 155.1953125 C61.07564805 156.16994386 61.07564805 156.16994386 64 156 C64 156.66 64 157.32 64 158 C70.9480909 160.22052389 81.64308193 160.239849 88.5 157.8125 C94.85248215 154.52282174 100.79416723 150.94554113 106 146 C106 145.01 106 144.02 106 143 C106.99 142.67 107.98 142.34 109 142 C111.27361255 138.23134752 111.27361255 138.23134752 112 134 C112.66 133.67 113.32 133.34 114 133 C113.67 132.01 113.34 131.02 113 130 C113.66 130 114.32 130 115 130 C116.07309426 119.46035948 116.07309426 119.46035948 115 109 C114.34 109 113.68 109 113 109 C113.33 107.68 113.66 106.36 114 105 C113.34 105 112.68 105 112 105 C111.814375 104.175 111.62875 103.35 111.4375 102.5 C108.62564255 95.65373839 102.93847384 90.29591725 97 86 C93.78734084 84.67649342 93.78734084 84.67649342 91 84 C91 83.34 91 82.68 91 82 C76.82300992 78.62165343 63.97768895 78.79793417 52 88 Z M255 184 C255 184.66 255 185.32 255 186 C254.13503906 186.10570312 253.27007812 186.21140625 252.37890625 186.3203125 C248.81076709 187.03806535 246.16060491 188.20314429 242.9375 189.875 C241.93589844 190.38804687 240.93429687 190.90109375 239.90234375 191.4296875 C234.20447461 194.34901593 234.20447461 194.34901593 230 199 C229.195625 199.474375 228.39125 199.94875 227.5625 200.4375 C224.92210376 202.0474977 223.60372596 203.38339449 222 206 C222 206.66 222 207.32 222 208 C221.34 208 220.68 208 220 208 C219.01 209.485 219.01 209.485 218 211 C216.515 211.495 216.515 211.495 215 212 C215.33 204.08 215.66 196.16 216 188 C194.88 188 173.76 188 152 188 C152 258.29 152 328.58 152 401 C173.12 401 194.24 401 216 401 C215.67 361.07 215.34 321.14 215 280 C215.66 280 216.32 280 217 280 C217.19335938 278.71222656 217.38671875 277.42445313 217.5859375 276.09765625 C217.84848971 274.41919746 218.11153607 272.74081592 218.375 271.0625 C218.50132812 270.21236328 218.62765625 269.36222656 218.7578125 268.48632812 C218.88671875 267.67744141 219.015625 266.86855469 219.1484375 266.03515625 C219.26364746 265.2862915 219.37885742 264.53742676 219.49755859 263.76586914 C219.74626709 262.89176392 219.74626709 262.89176392 220 262 C220.66 261.67 221.32 261.34 222 261 C222.74597531 259.81453537 223.44800486 258.60116603 224.125 257.375 C228.42215492 250.33524914 234.21912404 245.64256165 242 243 C244.9375 242.3125 244.9375 242.3125 247 242 C247 241.34 247 240.68 247 240 C258.2056819 240.15642449 268.56977952 240.85025633 277.70703125 248.16796875 C279.77125787 250.20806933 279.77125787 250.20806933 282 250 C282.12375 250.598125 282.2475 251.19625 282.375 251.8125 C282.95475985 254.26231348 282.95475985 254.26231348 285 257 C285.66 257 286.32 257 287 257 C286.67 257.99 286.34 258.98 286 260 C286.66 260 287.32 260 288 260 C289.06965872 266.32448699 290.13329546 272.64416673 291 279 C291.66 279 292.32 279 293 279 C292.67 319.26 292.34 359.52 292 401 C313.78 401 335.56 401 358 401 C358.05834935 376.2011782 358.05834935 376.2011782 358.09765625 351.40234375 C358.10948456 341.27716018 358.12332541 331.1520101 358.15087891 321.02685547 C358.17094376 313.64999421 358.18374717 306.27316034 358.18817699 298.89627254 C358.19076243 294.99780117 358.19674847 291.0994081 358.21146011 287.20096207 C358.4290935 261.45883466 358.4290935 261.45883466 355 236 C354.34 236 353.68 236 353 236 C353.33 234.35 353.66 232.7 354 231 C353.34 231 352.68 231 352 231 C351.87882813 230.40832031 351.75765625 229.81664062 351.6328125 229.20703125 C350.73255357 224.96196415 349.79543379 220.97560339 348 217 C347.34 217 346.68 217 346 217 C345.8453125 216.195625 345.8453125 216.195625 345.6875 215.375 C344.80571661 212.3288392 343.58583826 209.74472006 342 207 C341.01 206.67 340.02 206.34 339 206 C338.87625 205.401875 338.7525 204.80375 338.625 204.1875 C337.70328488 200.96149709 335.70371991 199.84644286 333 198 C332.34 198 331.68 198 331 198 C330.79375 197.401875 330.5875 196.80375 330.375 196.1875 C328.47028656 193.15727407 326.22861643 192.4560427 323 191 C322.24332031 190.52820313 321.48664063 190.05640625 320.70703125 189.5703125 C301.13892423 178.21911622 276.33693236 178.99356894 255 184 Z M44 188 C44 258.29 44 328.58 44 401 C65.78 401 87.56 401 110 401 C110 330.71 110 260.42 110 188 C88.22 188 66.44 188 44 188 Z " fill="#A200FF" transform="translate(102,59)"/>
</svg>
